<svg width="89" height="48" viewBox="0 0 89 48" fill="none" xmlns="http://www.w3.org/2000/svg">
<path d="M26.88 39.704C27.136 39.672 27.52 39.72 28.032 39.848C28.544 39.976 28.864 40.104 28.992 40.232C29.216 40.424 28.928 40.92 28.128 41.72C27.904 41.944 27.584 42.216 27.168 42.536C26.784 42.888 26.368 43.24 25.92 43.592C25.504 43.976 25.072 44.328 24.624 44.648C24.208 44.968 23.872 45.208 23.616 45.368C22.112 46.328 20.496 46.952 18.768 47.24C17.04 47.528 15.312 47.528 13.584 47.24C11.856 46.984 10.192 46.456 8.592 45.656C6.992 44.856 5.584 43.848 4.368 42.632C3.536 41.768 2.816 40.76 2.208 39.608C1.6 38.488 1.168 37.304 0.912 36.056C0.816 35.64 0.768 35.048 0.768 34.28C0.768 33.512 0.8 32.92 0.864 32.504C0.992 31.704 1.248 30.888 1.632 30.056C2.016 29.192 2.496 28.392 3.072 27.656C3.456 27.144 3.984 26.584 4.656 25.976C5.328 25.336 5.968 24.824 6.576 24.44C7.216 23.992 8 23.544 8.928 23.096C9.856 22.616 10.688 22.248 11.424 21.992C11.712 21.896 11.936 21.816 12.096 21.752C12.256 21.688 12.368 21.592 12.432 21.464C12.528 21.336 12.576 21.144 12.576 20.888C12.608 20.6 12.656 20.184 12.72 19.64C12.88 17.912 13.088 16.152 13.344 14.36C13.6 12.536 13.888 10.808 14.208 9.176C14.336 8.44 14.4 8.008 14.4 7.88C14.432 7.72 14.416 7.672 14.352 7.736C14.288 7.832 14.16 8.104 13.968 8.552C13.808 8.968 13.648 9.448 13.488 9.992C13.328 10.504 13.184 11 13.056 11.48C12.928 11.928 12.864 12.232 12.864 12.392C12.864 12.648 12.704 12.856 12.384 13.016C12.064 13.176 11.664 13.224 11.184 13.16C10.544 13.096 10.144 12.872 9.984 12.488C9.856 12.104 9.92 11.352 10.176 10.232C10.56 8.408 11.136 6.808 11.904 5.432C12.704 4.056 13.664 3 14.784 2.264C15.424 1.816 16.08 1.48 16.752 1.256C17.456 0.999999 18.08 0.871999 18.624 0.871999C18.752 0.871999 18.944 0.903998 19.2 0.967998C19.488 0.999999 19.776 1.048 20.064 1.112C20.352 1.176 20.624 1.256 20.88 1.352C21.136 1.416 21.344 1.48 21.504 1.544C22.24 1.864 22.848 2.472 23.328 3.368C23.84 4.232 24.256 5.464 24.576 7.064C24.704 7.64 24.8 8.152 24.864 8.6C24.928 9.048 24.976 9.56 25.008 10.136C25.072 10.712 25.104 11.432 25.104 12.296C25.136 13.128 25.152 14.216 25.152 15.56L25.2 20.696L25.44 20.744C25.504 20.776 25.632 20.808 25.824 20.84C26.016 20.84 26.24 20.872 26.496 20.936C26.976 21.032 27.504 21.176 28.08 21.368C28.656 21.528 28.992 21.64 29.088 21.704C29.184 21.768 29.216 21.88 29.184 22.04C29.184 22.2 29.136 22.328 29.04 22.424C28.976 22.456 28.864 22.52 28.704 22.616C28.544 22.68 28.384 22.744 28.224 22.808C27.904 22.936 27.664 23.016 27.504 23.048C27.344 23.048 26.976 23.032 26.4 23C25.92 22.968 25.6 22.952 25.44 22.952C25.28 22.952 25.184 22.984 25.152 23.048C25.12 23.112 25.088 23.4 25.056 23.912C25.056 24.424 25.04 25.048 25.008 25.784C24.976 26.52 24.928 27.288 24.864 28.088C24.832 28.888 24.8 29.512 24.768 29.96C24.704 30.408 24.656 31.048 24.624 31.88C24.592 32.68 24.56 33.448 24.528 34.184C24.496 34.92 24.464 35.512 24.432 35.96C24.4 36.408 24.368 36.744 24.336 36.968C24.336 37.224 24.32 37.4 24.288 37.496C24.256 37.624 24.208 37.704 24.144 37.736C24.016 37.864 23.744 37.992 23.328 38.12C22.944 38.28 22.624 38.392 22.368 38.456C22.112 38.52 21.76 38.504 21.312 38.408C20.896 38.344 20.56 38.248 20.304 38.12C20.048 37.96 19.904 37.768 19.872 37.544C19.872 37.512 19.856 37.288 19.824 36.872C19.824 36.456 19.808 35.912 19.776 35.24C19.776 34.568 19.776 33.8 19.776 32.936C19.776 32.04 19.776 31.112 19.776 30.152L19.68 23.144H19.248C19.056 23.144 18.8 23.16 18.48 23.192C18.16 23.224 17.856 23.256 17.568 23.288C17.28 23.32 17.024 23.352 16.8 23.384C16.576 23.416 16.448 23.448 16.416 23.48C16.384 23.512 16.336 23.768 16.272 24.248C16.208 24.696 16.144 25.24 16.08 25.88C15.92 27.384 15.76 28.632 15.6 29.624C15.44 30.584 15.28 31.528 15.12 32.456C15.056 32.872 14.976 33.384 14.88 33.992C14.784 34.6 14.704 35.128 14.64 35.576C14.576 36.024 14.512 36.408 14.448 36.728C14.416 37.08 14.4 37.272 14.4 37.304C14.304 37.4 14.144 37.512 13.92 37.64C13.664 37.8 13.28 37.88 12.768 37.88C12.256 37.912 11.872 37.848 11.616 37.688L11.28 37.496L11.328 36.008C11.36 34.92 11.392 34.008 11.424 33.272C11.488 32.504 11.536 31.848 11.568 31.304C11.6 30.728 11.632 30.216 11.664 29.768C11.696 29.32 11.744 28.872 11.808 28.424C11.904 27.56 11.968 26.904 12 26.456C12.032 26.008 12.048 25.672 12.048 25.448C12.08 25.224 12.08 25.096 12.048 25.064C12.048 25.032 12.032 25.016 12 25.016C11.872 25.016 11.648 25.128 11.328 25.352C11.04 25.576 10.72 25.864 10.368 26.216C10.016 26.536 9.664 26.888 9.312 27.272C8.992 27.624 8.736 27.944 8.544 28.232C6.656 31.016 6.288 34.008 7.44 37.208C7.76 38.136 8.192 39.048 8.736 39.944C9.312 40.84 9.904 41.576 10.512 42.152C11.312 42.888 12.096 43.496 12.864 43.976C13.632 44.488 14.416 44.84 15.216 45.032C16.048 45.256 16.912 45.304 17.808 45.176C18.704 45.048 19.664 44.712 20.688 44.168C20.976 44.008 21.344 43.768 21.792 43.448C22.24 43.16 22.688 42.84 23.136 42.488C23.584 42.136 23.984 41.784 24.336 41.432C24.72 41.112 24.992 40.856 25.152 40.664C25.344 40.44 25.6 40.232 25.92 40.04C26.272 39.88 26.592 39.768 26.88 39.704ZM16.896 17.816C16.8 18.648 16.72 19.352 16.656 19.928C16.624 20.504 16.608 20.808 16.608 20.84C16.608 20.872 16.784 20.888 17.136 20.888C17.52 20.856 18.176 20.792 19.104 20.696L19.776 20.648L19.824 19.16C19.856 18.52 19.872 17.704 19.872 16.712C19.904 15.72 19.92 14.744 19.92 13.784C19.92 12.792 19.904 11.896 19.872 11.096C19.872 10.264 19.856 9.704 19.824 9.416C19.696 7.944 19.472 6.616 19.152 5.432C19.056 4.984 18.944 4.6 18.816 4.28C18.72 3.96 18.656 3.88 18.624 4.04C18.624 4.104 18.592 4.36 18.528 4.808C18.496 5.224 18.432 5.72 18.336 6.296C18.272 6.872 18.192 7.464 18.096 8.072C18.032 8.648 17.968 9.128 17.904 9.512C17.712 10.728 17.536 12.024 17.376 13.4C17.216 14.744 17.056 16.216 16.896 17.816ZM35.9824 2.792C36.1424 2.952 36.3184 3.224 36.5104 3.608C36.7024 3.992 36.8464 4.408 36.9424 4.856C36.9744 5.08 36.9904 5.432 36.9904 5.912C37.0224 6.392 37.0224 6.936 36.9904 7.544C36.9904 8.12 36.9584 8.712 36.8944 9.32C36.8624 9.928 36.8144 10.488 36.7504 11C36.6864 11.64 36.5744 12.456 36.4144 13.448C36.2544 14.408 36.0784 15.448 35.8864 16.568C35.7264 17.656 35.5344 18.76 35.3104 19.88C35.1184 20.968 34.9424 21.928 34.7824 22.76C34.5584 23.944 34.3664 24.936 34.2064 25.736C34.0784 26.504 33.9664 27.192 33.8704 27.8C33.8064 28.376 33.7584 28.92 33.7264 29.432C33.6944 29.912 33.6784 30.456 33.6784 31.064C33.6784 33.4 33.8544 35.128 34.2064 36.248C34.3024 36.504 34.4464 36.824 34.6384 37.208C34.8304 37.624 34.9904 37.912 35.1184 38.072C35.2144 38.232 35.1984 38.376 35.0704 38.504C34.9424 38.632 34.7504 38.744 34.4944 38.84C34.2704 38.968 33.9824 39.048 33.6304 39.08C33.2784 39.144 32.9424 39.16 32.6224 39.128C32.2704 39.064 31.9184 38.952 31.5664 38.792C31.2464 38.664 31.0064 38.52 30.8464 38.36C30.6544 38.168 30.4464 37.896 30.2224 37.544C30.0304 37.224 29.8224 36.872 29.5984 36.488C29.4064 36.104 29.2304 35.736 29.0704 35.384C28.9104 35.032 28.7984 34.728 28.7344 34.472C28.3824 33.192 28.2864 31.624 28.4464 29.768C28.6064 27.88 29.0064 25.496 29.6464 22.616C29.8704 21.624 30.1264 20.472 30.4144 19.16C30.7024 17.848 30.9744 16.552 31.2304 15.272C31.4864 13.96 31.7104 12.728 31.9024 11.576C32.1264 10.392 32.2864 9.432 32.3824 8.696C32.5424 7.736 32.6224 6.792 32.6224 5.864C32.6224 4.904 32.5584 4.216 32.4304 3.8C32.3344 3.448 32.2384 3.272 32.1424 3.272C32.0464 3.272 31.9184 3.192 31.7584 3.032L31.5184 2.84L31.8064 2.6C32.3184 2.184 32.9584 2.024 33.7264 2.12C34.1424 2.152 34.5744 2.232 35.0224 2.36C35.4704 2.488 35.7904 2.632 35.9824 2.792ZM41.058 30.824C41.218 30.504 41.394 30.088 41.586 29.576C41.81 29.064 42.018 28.536 42.21 27.992C42.402 27.448 42.562 26.936 42.69 26.456C42.85 25.944 42.962 25.512 43.026 25.16C43.09 24.712 43.17 24.216 43.266 23.672C43.394 23.128 43.49 22.68 43.554 22.328C43.81 21.208 43.954 20.136 43.986 19.112C44.05 18.088 44.002 17.256 43.842 16.616V16.52C43.746 16.136 43.634 15.944 43.506 15.944C43.41 15.944 43.298 15.88 43.17 15.752L42.93 15.56L43.218 15.32C43.73 14.904 44.354 14.728 45.09 14.792C45.538 14.824 45.986 14.92 46.434 15.08C46.882 15.208 47.186 15.352 47.346 15.512C47.538 15.672 47.714 15.944 47.874 16.328C48.066 16.712 48.21 17.128 48.306 17.576C48.37 17.896 48.402 18.264 48.402 18.68C48.466 19.064 48.498 19.464 48.498 19.88C48.498 20.264 48.498 20.632 48.498 20.984C48.466 21.368 48.418 21.768 48.354 22.184C48.322 22.568 48.258 23.08 48.162 23.72V23.864C48.066 24.344 47.954 24.904 47.826 25.544C47.73 26.184 47.602 26.968 47.442 27.896C47.41 28.088 47.378 28.28 47.346 28.472C47.314 28.664 47.282 28.84 47.25 29C47.218 29.352 47.202 29.688 47.202 30.008C47.202 30.328 47.202 30.68 47.202 31.064C47.202 31.416 47.234 31.928 47.298 32.6C47.394 33.272 47.506 33.976 47.634 34.712C47.762 35.448 47.906 36.12 48.066 36.728C48.258 37.368 48.45 37.816 48.642 38.072C48.706 38.168 48.626 38.296 48.402 38.456C48.178 38.616 47.874 38.744 47.49 38.84C47.138 38.936 46.706 38.968 46.194 38.936C45.714 38.904 45.218 38.744 44.706 38.456C44.226 38.168 43.762 37.704 43.314 37.064C42.898 36.424 42.546 35.56 42.258 34.472C42.226 34.44 42.21 34.408 42.21 34.376C42.21 34.344 42.194 34.312 42.162 34.28V34.328C41.842 34.776 41.554 35.08 41.298 35.24C41.074 35.4 40.738 35.528 40.29 35.624C39.01 35.816 37.826 35.624 36.738 35.048C36.482 34.888 36.29 34.76 36.162 34.664C36.066 34.536 35.938 34.312 35.778 33.992C35.586 33.608 35.442 33.144 35.346 32.6C35.282 32.024 35.266 31.272 35.298 30.344C35.33 29.864 35.362 29.416 35.394 29C35.426 28.584 35.49 28.12 35.586 27.608C35.682 27.096 35.794 26.504 35.922 25.832C36.082 25.128 36.274 24.296 36.498 23.336C36.722 22.408 36.898 21.64 37.026 21.032C37.154 20.424 37.25 19.912 37.314 19.496C37.41 19.08 37.458 18.728 37.458 18.44C37.49 18.152 37.506 17.832 37.506 17.48C37.506 16.776 37.49 16.328 37.458 16.136C37.426 15.944 37.314 15.816 37.122 15.752C36.962 15.72 36.882 15.624 36.882 15.464C36.914 15.336 37.026 15.224 37.218 15.128C37.442 15 37.698 14.92 37.986 14.888C38.274 14.824 38.578 14.792 38.898 14.792C39.218 14.792 39.506 14.84 39.762 14.936C40.402 15.16 40.834 15.336 41.058 15.464C41.282 15.592 41.474 15.8 41.634 16.088C41.698 16.248 41.762 16.44 41.826 16.664C41.922 16.888 41.986 17.096 42.018 17.288C42.114 17.832 42.13 18.632 42.066 19.688C42.002 20.744 41.874 21.848 41.682 23C41.33 25.176 41.058 26.952 40.866 28.328C40.706 29.672 40.626 30.616 40.626 31.16V31.64L41.058 30.824ZM67.1475 5.336C67.0515 7.864 66.2035 10.616 64.6035 13.592C64.2195 14.328 63.8835 14.888 63.5955 15.272C63.3395 15.624 63.1155 15.864 62.9235 15.992C62.6675 16.12 62.3475 16.184 61.9635 16.184C61.6115 16.184 61.3555 16.136 61.1955 16.04C61.1315 15.976 61.0835 15.912 61.0515 15.848C61.0515 15.752 61.0835 15.576 61.1475 15.32C61.1795 15.16 61.2435 14.872 61.3395 14.456C61.4675 14.008 61.5955 13.56 61.7235 13.112C62.1075 11.768 62.3795 10.616 62.5395 9.656C62.6995 8.664 62.7795 7.704 62.7795 6.776C62.7795 6.04 62.6995 5.368 62.5395 4.76C62.3795 4.152 62.1555 3.672 61.8675 3.32C61.8035 3.224 61.7395 3.192 61.6755 3.224C61.6435 3.224 61.5475 3.32 61.3875 3.512C60.7475 4.248 60.1395 5.144 59.5635 6.2C58.5715 8.088 57.7875 10.184 57.2115 12.488C56.6675 14.792 56.3155 17.448 56.1555 20.456C56.0915 21.544 56.0755 22.648 56.1075 23.768C56.1715 24.856 56.2835 25.816 56.4435 26.648C56.6995 27.864 57.1155 29.128 57.6915 30.44C58.2675 31.72 58.8915 32.776 59.5635 33.608C60.0115 34.152 60.5075 34.664 61.0515 35.144C61.6275 35.656 62.0275 35.944 62.2515 36.008C62.5715 36.072 62.6675 36.2 62.5395 36.392C62.4435 36.584 62.1715 36.808 61.7235 37.064C61.2755 37.32 60.8435 37.464 60.4275 37.496C60.0115 37.56 59.5315 37.56 58.9875 37.496C57.5475 37.272 56.3315 36.744 55.3395 35.912C54.3475 35.08 53.5155 34.072 52.8435 32.888C52.2035 31.672 51.7075 30.344 51.3555 28.904C51.0035 27.432 50.7635 25.96 50.6355 24.488C50.5395 22.984 50.5395 21.528 50.6355 20.12C50.7315 18.712 50.8755 17.464 51.0675 16.376C51.5155 13.848 52.1875 11.528 53.0835 9.416C53.9795 7.272 55.0355 5.48 56.2515 4.04C56.9875 3.208 57.8835 2.472 58.9395 1.832C59.9955 1.192 60.9555 0.807999 61.8195 0.679998C61.9475 0.679998 62.1395 0.695998 62.3955 0.727998C62.6835 0.727998 62.9715 0.743998 63.2595 0.775997C63.5795 0.807999 63.8835 0.855999 64.1715 0.919998C64.4595 0.951998 64.6995 0.999998 64.8915 1.064C65.5635 1.256 66.1075 1.672 66.5235 2.312C66.7795 2.76 66.9555 3.192 67.0515 3.608C67.1795 4.024 67.2115 4.6 67.1475 5.336ZM75.0608 16.616C75.1248 16.808 75.0928 17.208 74.9648 17.816C74.8368 18.392 74.5968 19.4 74.2448 20.84C74.0528 21.608 73.8768 22.344 73.7168 23.048C73.5568 23.72 73.4128 24.376 73.2848 25.016C72.9648 26.456 72.6608 27.928 72.3728 29.432C72.1168 30.744 71.8768 32.168 71.6528 33.704C71.4288 35.24 71.2848 36.728 71.2208 38.168C70.4848 37.848 69.8448 37.368 69.3008 36.728C68.7568 36.12 68.3888 35.448 68.1968 34.712C68.1328 34.52 68.0848 34.408 68.0528 34.376C68.0208 34.376 67.9408 34.392 67.8128 34.424C67.6848 34.456 67.5408 34.504 67.3808 34.568C66.5168 34.92 65.6208 35.032 64.6928 34.904C63.9568 34.808 63.2688 34.6 62.6288 34.28C62.0208 33.928 61.5408 33.528 61.1888 33.08C60.9008 32.632 60.6928 32.184 60.5648 31.736C60.4688 31.288 60.4047 30.616 60.3727 29.72C60.3407 28.888 60.3727 28.104 60.4688 27.368C60.5328 26.632 60.6928 25.848 60.9488 25.016C61.3328 23.704 61.8448 22.44 62.4848 21.224C63.1568 19.976 63.8608 18.936 64.5968 18.104C64.8848 17.784 65.2368 17.464 65.6528 17.144C66.1008 16.824 66.5488 16.552 66.9968 16.328C67.4768 16.104 67.9408 15.928 68.3888 15.8C68.8368 15.64 69.2368 15.56 69.5888 15.56C69.8448 15.56 70.1648 15.608 70.5488 15.704C70.9648 15.768 71.3808 15.88 71.7968 16.04C72.0528 16.136 72.2448 16.2 72.3728 16.232C72.5008 16.232 72.6448 16.2 72.8047 16.136C73.0608 16.072 73.3328 16.056 73.6208 16.088C73.9408 16.088 74.2608 16.152 74.5807 16.28C74.8688 16.312 75.0288 16.424 75.0608 16.616ZM68.1968 28.52C68.3248 28.136 68.5168 27.48 68.7728 26.552C69.0608 25.592 69.3168 24.6 69.5408 23.576C69.7968 22.552 70.0208 21.624 70.2128 20.792C70.4048 19.928 70.5008 19.416 70.5008 19.256C70.5008 19.192 70.3888 19.096 70.1648 18.968C69.9088 18.776 69.7168 18.568 69.5888 18.344L69.3968 17.912L69.0608 18.248C68.6128 18.664 68.1008 19.336 67.5247 20.264C66.9808 21.16 66.5168 22.04 66.1328 22.904C65.8448 23.64 65.5888 24.424 65.3648 25.256C65.1408 26.088 64.9808 26.904 64.8848 27.704C64.7888 28.504 64.7408 29.272 64.7408 30.008C64.7728 30.712 64.8688 31.304 65.0288 31.784C65.0928 32.072 65.2048 32.36 65.3648 32.648C65.5568 32.936 65.6848 33.08 65.7488 33.08C65.7808 33.016 65.8448 32.92 65.9408 32.792C66.0048 32.696 66.0688 32.6 66.1328 32.504C66.2288 32.408 66.3248 32.28 66.4208 32.12C66.7728 31.576 67.0928 31.016 67.3808 30.44C67.6688 29.864 67.9408 29.224 68.1968 28.52ZM86.961 20.36C86.673 21.224 86.417 21.992 86.193 22.664C85.969 23.336 85.777 23.944 85.617 24.488C85.489 25.032 85.377 25.544 85.281 26.024C85.185 26.504 85.105 26.984 85.041 27.464C84.913 28.36 84.833 29.272 84.801 30.2C84.801 31.128 84.865 31.864 84.993 32.408C85.345 33.944 86.049 34.856 87.105 35.144C87.777 35.368 87.905 35.608 87.489 35.864C87.105 36.12 86.609 36.28 86.001 36.344C85.393 36.44 84.849 36.424 84.369 36.296C83.537 36.072 82.737 35.64 81.969 35C81.201 34.392 80.689 33.768 80.433 33.128C80.273 32.68 80.161 32.248 80.097 31.832C80.065 31.384 80.065 30.728 80.097 29.864C80.129 28.744 80.241 27.704 80.433 26.744C80.625 25.752 80.945 24.6 81.393 23.288C81.649 22.52 81.953 21.672 82.305 20.744C82.689 19.816 83.057 18.984 83.409 18.248L83.793 17.528L82.737 17.432C82.353 17.432 81.985 17.416 81.633 17.384C81.281 17.352 80.945 17.304 80.625 17.24C80.497 18.168 80.289 19.384 80.001 20.888C79.713 22.392 79.377 23.976 78.993 25.64C78.609 27.272 78.209 28.872 77.793 30.44C77.377 31.976 76.961 33.256 76.545 34.28C75.841 36.04 74.993 37.496 74.001 38.648C73.009 39.832 71.809 40.44 70.401 40.472C70.145 40.472 69.921 40.376 69.729 40.184C69.505 39.992 69.377 39.752 69.345 39.464C69.345 39.176 69.457 38.92 69.681 38.696C69.873 38.504 70.097 38.408 70.353 38.408C71.217 38.376 72.017 37.896 72.753 36.968C73.457 36.04 74.081 34.872 74.625 33.464C75.009 32.504 75.393 31.288 75.777 29.816C76.193 28.312 76.577 26.776 76.929 25.208C77.313 23.608 77.649 22.088 77.937 20.648C78.225 19.208 78.417 18.072 78.513 17.24C78.545 17.176 78.561 17.08 78.561 16.952C78.561 16.888 78.561 16.824 78.561 16.76C78.593 16.664 78.609 16.568 78.609 16.472C78.609 16.408 78.625 16.36 78.657 16.328C78.433 16.168 78.225 15.96 78.033 15.704C77.873 15.448 77.713 15.144 77.553 14.792C77.425 14.536 77.345 14.328 77.313 14.168C77.281 13.976 77.265 13.704 77.265 13.352C77.265 13 77.281 12.744 77.313 12.584C77.345 12.392 77.441 12.152 77.601 11.864C77.761 11.608 77.873 11.432 77.937 11.336C78.033 11.208 78.193 11.064 78.417 10.904C78.865 10.648 79.217 10.504 79.473 10.472C79.761 10.44 80.129 10.472 80.577 10.568C80.897 10.632 81.137 10.696 81.297 10.76C81.489 10.792 81.617 10.84 81.681 10.904C81.745 10.968 81.777 11.064 81.777 11.192C81.809 11.32 81.825 11.512 81.825 11.768C81.825 13.272 82.273 14.472 83.169 15.368L83.697 15.8H85.377C86.113 15.768 86.609 15.768 86.865 15.8C87.121 15.832 87.345 15.88 87.537 15.944C87.697 16.008 87.825 16.072 87.921 16.136C88.049 16.168 88.113 16.2 88.113 16.232C88.145 16.296 88.145 16.408 88.113 16.568C88.113 16.696 88.065 16.92 87.969 17.24C87.873 17.528 87.745 17.928 87.585 18.44C87.425 18.92 87.217 19.56 86.961 20.36Z" fill="white"/>
</svg>
