<svg width="23" height="23" viewBox="0 0 23 23" fill="none" xmlns="http://www.w3.org/2000/svg">
<path d="M20.09 1V6.73H3.86003C3.12944 6.68682 2.44296 6.36617 1.94095 5.83362C1.43895 5.30107 1.15936 4.59686 1.15936 3.865C1.15936 3.13314 1.43895 2.42893 1.94095 1.89638C2.44296 1.36383 3.12944 1.04318 3.86003 1H20.09Z" stroke="#004A74" stroke-width="1.91" stroke-miterlimit="10" stroke-linecap="square"/>
<path d="M18.18 12.5H22V16.32H18.18C17.6735 16.32 17.1876 16.1188 16.8294 15.7606C16.4713 15.4024 16.27 14.9166 16.27 14.41C16.27 13.9034 16.4713 13.4176 16.8294 13.0594C17.1876 12.7012 17.6735 12.5 18.18 12.5Z" stroke="#004A74" stroke-width="1.91" stroke-miterlimit="10" stroke-linecap="square"/>
<path d="M22 6.72999V22H2.91002C2.40426 21.9974 1.91997 21.7953 1.56235 21.4377C1.20472 21.08 1.00264 20.5957 1.00002 20.09V3.85999C0.998701 4.23641 1.07171 4.60938 1.21485 4.95753C1.35798 5.30568 1.56844 5.62214 1.83415 5.88878C2.09985 6.15541 2.41558 6.36697 2.76323 6.51133C3.11087 6.65568 3.48359 6.72999 3.86002 6.72999H22Z" stroke="#004A74" stroke-width="1.91" stroke-miterlimit="10" stroke-linecap="square"/>
</svg>
