<svg width="24" height="24" viewBox="0 0 24 24" fill="none" xmlns="http://www.w3.org/2000/svg">
<g clip-path="url(#clip0_11_82)">
<path d="M9.14002 1.50002H14.87C15.6285 1.50002 16.356 1.80134 16.8923 2.33769C17.4287 2.87405 17.73 3.6015 17.73 4.36002V13.91H6.27002V4.36002C6.27002 3.98359 6.34432 3.61087 6.48868 3.26323C6.63303 2.91558 6.84459 2.59985 7.11123 2.33415C7.37786 2.06844 7.69433 1.85798 8.04247 1.71485C8.39062 1.57171 8.7636 1.4987 9.14002 1.50002V1.50002Z" stroke="#00507D" stroke-width="1.91" stroke-miterlimit="10"/>
<path d="M1.5 10.09H6.27V13.43C6.27 14.0638 6.0182 14.6717 5.56999 15.12C5.12177 15.5682 4.51387 15.82 3.88 15.82V15.82C3.24787 15.8173 2.64253 15.5644 2.19648 15.1164C1.75042 14.6685 1.49999 14.0621 1.5 13.43V10.09Z" stroke="#00507D" stroke-width="1.91" stroke-miterlimit="10"/>
<path d="M17.73 10.09H22.5V13.43C22.5 14.0638 22.2482 14.6717 21.8 15.12C21.3517 15.5682 20.7438 15.82 20.11 15.82V15.82C19.4761 15.82 18.8682 15.5682 18.42 15.12C17.9718 14.6717 17.72 14.0638 17.72 13.43V10.09H17.73Z" stroke="#00507D" stroke-width="1.91" stroke-miterlimit="10"/>
<path d="M4.6 15.7C4.44896 15.9939 4.37011 16.3195 4.37 16.65C4.37 17.1804 4.58071 17.6891 4.95578 18.0642C5.33085 18.4392 5.83956 18.65 6.37 18.65H17.61C18.1404 18.65 18.6491 18.4392 19.0242 18.0642C19.3993 17.6891 19.61 17.1804 19.61 16.65C19.6099 16.3195 19.531 15.9939 19.38 15.7" stroke="#00507D" stroke-width="1.91" stroke-miterlimit="10"/>
<path d="M17.79 13.98L17.73 13.91H6.27002L6.21002 13.98" stroke="#00507D" stroke-width="1.91" stroke-miterlimit="10"/>
<path d="M7.22998 22.5001V18.6801" stroke="#00507D" stroke-width="1.91" stroke-miterlimit="10"/>
<path d="M16.77 22.5001V18.6801" stroke="#00507D" stroke-width="1.91" stroke-miterlimit="10"/>
<path d="M5.32001 22.5H9.14001" stroke="#00507D" stroke-width="1.91" stroke-miterlimit="10"/>
<path d="M14.86 22.5H18.68" stroke="#00507D" stroke-width="1.91" stroke-miterlimit="10"/>
</g>
<defs>
<clipPath id="clip0_11_82">
<rect width="24" height="24" fill="white"/>
</clipPath>
</defs>
</svg>
