<svg width="180" height="54" viewBox="0 0 180 54" fill="none" xmlns="http://www.w3.org/2000/svg">
<path d="M173.333 53.3333H6.66667C3 53.3333 0 50.3333 0 46.6666V6.66659C0 2.99992 3 -7.82013e-05 6.66667 -7.82013e-05H173.333C177 -7.82013e-05 180 2.99992 180 6.66659V46.6666C180 50.3333 177 53.3333 173.333 53.3333Z" fill="black"/>
<path d="M173.333 0.000165939H6.66667C3 0.000165939 0 3.00017 0 6.66683V46.6668C0 50.3335 3 53.3335 6.66667 53.3335H173.333C177 53.3335 180 50.3335 180 46.6668V6.66683C180 3.00017 177 0.000165939 173.333 0.000165939ZM173.333 1.06683C176.421 1.06683 178.933 3.57883 178.933 6.66683V46.6668C178.933 49.7548 176.421 52.2668 173.333 52.2668H6.66667C3.57867 52.2668 1.06667 49.7548 1.06667 46.6668V6.66683C1.06667 3.57883 3.57867 1.06683 6.66667 1.06683H173.333" fill="#A6A6A6"/>
<path d="M142.581 40.0001H145.069V23.3321H142.581V40.0001ZM164.991 29.3361L162.139 36.5628H162.053L159.093 29.3361H156.413L160.852 39.4361L158.323 45.0548H160.916L167.757 29.3361H164.991ZM150.881 38.1068C150.065 38.1068 148.929 37.7001 148.929 36.6908C148.929 35.4055 150.344 34.9121 151.567 34.9121C152.66 34.9121 153.176 35.1481 153.84 35.4695C153.647 37.0135 152.317 38.1068 150.881 38.1068ZM151.181 28.9721C149.38 28.9721 147.513 29.7655 146.743 31.5241L148.951 32.4455C149.423 31.5241 150.301 31.2228 151.224 31.2228C152.511 31.2228 153.819 31.9948 153.84 33.3681V33.5388C153.389 33.2815 152.425 32.8961 151.245 32.8961C148.865 32.8961 146.441 34.2041 146.441 36.6481C146.441 38.8788 148.393 40.3161 150.58 40.3161C152.253 40.3161 153.176 39.5655 153.755 38.6855H153.84V39.9721H156.241V33.5815C156.241 30.6228 154.033 28.9721 151.181 28.9721M135.805 31.3655H132.267V25.6521H135.805C137.665 25.6521 138.721 27.1921 138.721 28.5081C138.721 29.8001 137.665 31.3655 135.805 31.3655ZM135.741 23.3321H129.78V40.0001H132.267V33.6855H135.741C138.499 33.6855 141.209 31.6881 141.209 28.5081C141.209 25.3281 138.499 23.3321 135.741 23.3321M103.233 38.1095C101.515 38.1095 100.076 36.6708 100.076 34.6948C100.076 32.6975 101.515 31.2361 103.233 31.2361C104.931 31.2361 106.261 32.6975 106.261 34.6948C106.261 36.6708 104.931 38.1095 103.233 38.1095ZM106.091 30.2695H106.004C105.445 29.6041 104.372 29.0028 103.019 29.0028C100.183 29.0028 97.5839 31.4935 97.5839 34.6948C97.5839 37.8735 100.183 40.3441 103.019 40.3441C104.372 40.3441 105.445 39.7428 106.004 39.0548H106.091V39.8721C106.091 42.0415 104.931 43.2015 103.061 43.2015C101.536 43.2015 100.591 42.1055 100.204 41.1815L98.0345 42.0841C98.6572 43.5881 100.312 45.4348 103.061 45.4348C105.983 45.4348 108.453 43.7161 108.453 39.5281V29.3455H106.091V30.2695ZM110.172 40.0001H112.664V23.3308H110.172V40.0001ZM116.336 34.5015C116.272 32.3108 118.033 31.1935 119.3 31.1935C120.289 31.1935 121.127 31.6868 121.405 32.3961L116.336 34.5015ZM124.069 32.6108C123.597 31.3441 122.157 29.0028 119.215 29.0028C116.293 29.0028 113.867 31.3001 113.867 34.6735C113.867 37.8521 116.272 40.3441 119.493 40.3441C122.093 40.3441 123.597 38.7548 124.22 37.8308L122.287 36.5415C121.643 37.4868 120.761 38.1095 119.493 38.1095C118.227 38.1095 117.324 37.5295 116.744 36.3921L124.327 33.2548L124.069 32.6108ZM63.6585 30.7428V33.1481H69.4145C69.2425 34.5015 68.7919 35.4895 68.1052 36.1761C67.2665 37.0148 65.9559 37.9388 63.6585 37.9388C60.1132 37.9388 57.3425 35.0815 57.3425 31.5375C57.3425 27.9921 60.1132 25.1361 63.6585 25.1361C65.5705 25.1361 66.9665 25.8881 67.9972 26.8548L69.6945 25.1575C68.2545 23.7828 66.3439 22.7295 63.6585 22.7295C58.8039 22.7295 54.7225 26.6828 54.7225 31.5375C54.7225 36.3921 58.8039 40.3441 63.6585 40.3441C66.2785 40.3441 68.2545 39.4841 69.8012 37.8735C71.3919 36.2841 71.8852 34.0508 71.8852 32.2455C71.8852 31.6868 71.8425 31.1721 71.7559 30.7428H63.6585ZM78.4305 38.1095C76.7119 38.1095 75.2292 36.6921 75.2292 34.6735C75.2292 32.6321 76.7119 31.2361 78.4305 31.2361C80.1479 31.2361 81.6305 32.6321 81.6305 34.6735C81.6305 36.6921 80.1479 38.1095 78.4305 38.1095ZM78.4305 29.0028C75.2932 29.0028 72.7372 31.3868 72.7372 34.6735C72.7372 37.9388 75.2932 40.3441 78.4305 40.3441C81.5665 40.3441 84.1225 37.9388 84.1225 34.6735C84.1225 31.3868 81.5665 29.0028 78.4305 29.0028ZM90.8479 38.1095C89.1292 38.1095 87.6465 36.6921 87.6465 34.6735C87.6465 32.6321 89.1292 31.2361 90.8479 31.2361C92.5665 31.2361 94.0479 32.6321 94.0479 34.6735C94.0479 36.6921 92.5665 38.1095 90.8479 38.1095ZM90.8479 29.0028C87.7119 29.0028 85.1559 31.3868 85.1559 34.6735C85.1559 37.9388 87.7119 40.3441 90.8479 40.3441C93.9839 40.3441 96.5399 37.9388 96.5399 34.6735C96.5399 31.3868 93.9839 29.0028 90.8479 29.0028Z" fill="white"/>
<path d="M13.9132 10.0507C13.5265 10.4613 13.2972 11.0987 13.2972 11.924V41.412C13.2972 42.2387 13.5265 42.8747 13.9132 43.2853L14.0118 43.3813L30.5318 26.8627V26.668V26.472L14.0118 9.95335L13.9132 10.0507Z" fill="url(#paint0_linear_13_4)"/>
<path d="M30.5319 26.4721V26.6681V26.8627L36.0372 32.3721L36.1625 32.3014L42.6865 28.5947C44.5492 27.5347 44.5492 25.8014 42.6865 24.7441L36.1625 21.0361L36.0385 20.9654L30.5319 26.4721Z" fill="url(#paint1_linear_13_4)"/>
<path d="M13.9132 43.2854C14.5278 43.9347 15.5425 44.0161 16.6852 43.3681L36.1625 32.3001L30.5318 26.6681L13.9132 43.2854Z" fill="url(#paint2_linear_13_4)"/>
<path d="M13.9132 10.0506L30.5318 26.668L36.1625 21.036L16.6852 9.96931C16.1492 9.66397 15.6412 9.51997 15.1905 9.51997C14.6785 9.51997 14.2398 9.7053 13.9132 10.0506" fill="url(#paint3_linear_13_4)"/>
<g opacity="0.199997">
<path d="M36.0382 32.1759L16.6849 43.1719C15.6022 43.7879 14.6342 43.7466 14.0129 43.1866L13.9142 43.2866L14.0129 43.3826V43.3812C14.6342 43.9412 15.6022 43.9826 16.6849 43.3666L36.1622 32.2999L36.0382 32.1759Z" fill="black"/>
</g>
<g opacity="0.119995">
<path d="M13.9137 43.091C13.5257 42.6803 13.2964 42.043 13.2964 41.2176V41.4123C13.2964 42.2376 13.5257 42.875 13.9137 43.2856L14.0137 43.187L13.9137 43.091Z" fill="black"/>
</g>
<g opacity="0.119995">
<path d="M42.6861 28.3982L36.0381 32.1756L36.1621 32.2996L42.6861 28.5929C43.6181 28.0636 44.0834 27.3662 44.0834 26.6689C44.0048 27.2996 43.5314 27.9182 42.6861 28.3982Z" fill="black"/>
</g>
<g opacity="0.25">
<path d="M16.6845 10.1642L42.6858 24.9375C43.5312 25.4175 44.0058 26.0362 44.0832 26.6682C44.0845 25.9709 43.6178 25.2722 42.6858 24.7429L16.6845 9.96955C14.8205 8.91088 13.2965 9.78955 13.2965 11.9242V12.1189C13.2965 9.98554 14.8205 9.10555 16.6845 10.1642Z" fill="white"/>
</g>
<path d="M56.1444 16.3503H57.563C58.487 16.3503 59.219 16.0863 59.759 15.557C60.299 15.0277 60.5684 14.2863 60.5684 13.333C60.5684 12.3877 60.299 11.649 59.759 11.1157C59.219 10.5837 58.487 10.317 57.563 10.317H56.1444V16.3503ZM55.1177 17.333V9.33301H57.563C58.7924 9.33301 59.7764 9.70367 60.5137 10.445C61.251 11.1863 61.619 12.149 61.619 13.333C61.619 14.5183 61.251 15.481 60.5137 16.221C59.7764 16.9637 58.7924 17.333 57.563 17.333H55.1177Z" fill="white"/>
<path d="M56.1444 16.3503H57.563C58.487 16.3503 59.219 16.0863 59.759 15.557C60.299 15.0277 60.5684 14.2863 60.5684 13.333C60.5684 12.3877 60.299 11.649 59.759 11.1157C59.219 10.5837 58.487 10.317 57.563 10.317H56.1444V16.3503ZM55.1177 17.333V9.33301H57.563C58.7924 9.33301 59.7764 9.70367 60.5137 10.445C61.251 11.1863 61.619 12.149 61.619 13.333C61.619 14.5183 61.251 15.481 60.5137 16.221C59.7764 16.9637 58.7924 17.333 57.563 17.333H55.1177Z" stroke="white" stroke-width="0.266667" stroke-miterlimit="10"/>
<path d="M63.0625 9.33325H64.0905V17.3333H63.0625V9.33325Z" fill="white" stroke="white" stroke-width="0.266667" stroke-miterlimit="10"/>
<path d="M68.1782 17.5117C67.5969 17.5117 67.0302 17.3224 66.4756 16.9424C65.9196 16.5624 65.5556 16.0304 65.3849 15.3437L66.3236 14.9651C66.4356 15.4037 66.6636 15.7744 67.0102 16.0757C67.3582 16.3771 67.7462 16.5291 68.1782 16.5291C68.6249 16.5291 69.0076 16.4117 69.3236 16.1771C69.6409 15.9424 69.7982 15.6237 69.7982 15.2211C69.7982 14.7744 69.6409 14.4304 69.3236 14.1877C69.0076 13.9464 68.5062 13.7211 67.8209 13.5117C67.1129 13.2891 66.5769 12.9997 66.2116 12.6464C65.8476 12.2917 65.6636 11.8397 65.6636 11.2877C65.6636 10.7144 65.8916 10.2157 66.3462 9.79172C66.8009 9.36772 67.3929 9.15439 68.1222 9.15439C68.8009 9.15439 69.3516 9.32372 69.7756 9.66239C70.2009 10.0024 70.4769 10.3717 70.6022 10.7744L69.6649 11.1651C69.5969 10.9131 69.4316 10.6771 69.1676 10.4611C68.9036 10.2464 68.5622 10.1384 68.1449 10.1384C67.7502 10.1384 67.4129 10.2477 67.1342 10.4677C66.8542 10.6877 66.7142 10.9611 66.7142 11.2877C66.7142 11.5864 66.8436 11.8384 67.0996 12.0424C67.3582 12.2477 67.7356 12.4317 68.2342 12.5957C68.6289 12.7224 68.9582 12.8451 69.2236 12.9651C69.4876 13.0837 69.7569 13.2424 70.0276 13.4397C70.2996 13.6371 70.5036 13.8824 70.6422 14.1771C70.7796 14.4717 70.8489 14.8117 70.8489 15.1997C70.8489 15.5864 70.7689 15.9331 70.6089 16.2384C70.4489 16.5437 70.2356 16.7864 69.9716 16.9651C69.7062 17.1437 69.4236 17.2797 69.1169 17.3717C68.8116 17.4651 68.4982 17.5117 68.1782 17.5117Z" fill="white"/>
<path d="M68.1782 17.5117C67.5969 17.5117 67.0302 17.3224 66.4756 16.9424C65.9196 16.5624 65.5556 16.0304 65.3849 15.3437L66.3236 14.9651C66.4356 15.4037 66.6636 15.7744 67.0102 16.0757C67.3582 16.3771 67.7462 16.5291 68.1782 16.5291C68.6249 16.5291 69.0076 16.4117 69.3236 16.1771C69.6409 15.9424 69.7982 15.6237 69.7982 15.2211C69.7982 14.7744 69.6409 14.4304 69.3236 14.1877C69.0076 13.9464 68.5062 13.7211 67.8209 13.5117C67.1129 13.2891 66.5769 12.9997 66.2116 12.6464C65.8476 12.2917 65.6636 11.8397 65.6636 11.2877C65.6636 10.7144 65.8916 10.2157 66.3462 9.79172C66.8009 9.36772 67.3929 9.15439 68.1222 9.15439C68.8009 9.15439 69.3516 9.32372 69.7756 9.66239C70.2009 10.0024 70.4769 10.3717 70.6022 10.7744L69.6649 11.1651C69.5969 10.9131 69.4316 10.6771 69.1676 10.4611C68.9036 10.2464 68.5622 10.1384 68.1449 10.1384C67.7502 10.1384 67.4129 10.2477 67.1342 10.4677C66.8542 10.6877 66.7142 10.9611 66.7142 11.2877C66.7142 11.5864 66.8436 11.8384 67.0996 12.0424C67.3582 12.2477 67.7356 12.4317 68.2342 12.5957C68.6289 12.7224 68.9582 12.8451 69.2236 12.9651C69.4876 13.0837 69.7569 13.2424 70.0276 13.4397C70.2996 13.6371 70.5036 13.8824 70.6422 14.1771C70.7796 14.4717 70.8489 14.8117 70.8489 15.1997C70.8489 15.5864 70.7689 15.9331 70.6089 16.2384C70.4489 16.5437 70.2356 16.7864 69.9716 16.9651C69.7062 17.1437 69.4236 17.2797 69.1169 17.3717C68.8116 17.4651 68.4982 17.5117 68.1782 17.5117Z" stroke="white" stroke-width="0.266667" stroke-miterlimit="10"/>
<path d="M73.3514 13.1093H75.0728C75.5048 13.1093 75.8514 12.9653 76.1114 12.6746C76.3728 12.3839 76.5021 12.0639 76.5021 11.7133C76.5021 11.3626 76.3728 11.0426 76.1114 10.7519C75.8514 10.4613 75.5048 10.3159 75.0728 10.3159H73.3514V13.1093ZM73.3514 17.3333H72.3248V9.33325H75.0501C75.7274 9.33325 76.3154 9.55859 76.8101 10.0093C77.3061 10.4599 77.5528 11.0279 77.5528 11.7133C77.5528 12.3986 77.3061 12.9666 76.8101 13.4159C76.3154 13.8679 75.7274 14.0933 75.0501 14.0933H73.3514V17.3333Z" fill="white"/>
<path d="M73.3514 13.1093H75.0728C75.5048 13.1093 75.8514 12.9653 76.1114 12.6746C76.3728 12.3839 76.5021 12.0639 76.5021 11.7133C76.5021 11.3626 76.3728 11.0426 76.1114 10.7519C75.8514 10.4613 75.5048 10.3159 75.0728 10.3159H73.3514V13.1093ZM73.3514 17.3333H72.3248V9.33325H75.0501C75.7274 9.33325 76.3154 9.55859 76.8101 10.0093C77.3061 10.4599 77.5528 11.0279 77.5528 11.7133C77.5528 12.3986 77.3061 12.9666 76.8101 13.4159C76.3154 13.8679 75.7274 14.0933 75.0501 14.0933H73.3514V17.3333Z" stroke="white" stroke-width="0.266667" stroke-miterlimit="10"/>
<path d="M80.2837 15.6295C80.8757 16.2295 81.5997 16.5282 82.457 16.5282C83.313 16.5282 84.0384 16.2295 84.6304 15.6295C85.2224 15.0295 85.5197 14.2642 85.5197 13.3335C85.5197 12.4029 85.2224 11.6362 84.6304 11.0375C84.0384 10.4375 83.313 10.1375 82.457 10.1375C81.5997 10.1375 80.8757 10.4375 80.2837 11.0375C79.693 11.6362 79.3957 12.4029 79.3957 13.3335C79.3957 14.2642 79.693 15.0295 80.2837 15.6295ZM85.3904 16.2989C84.6037 17.1082 83.6264 17.5122 82.457 17.5122C81.2877 17.5122 80.3104 17.1082 79.525 16.2989C78.7384 15.4909 78.3464 14.5029 78.3464 13.3335C78.3464 12.1642 78.7384 11.1749 79.525 10.3669C80.3104 9.55887 81.2877 9.15354 82.457 9.15354C83.6197 9.15354 84.5944 9.56021 85.385 10.3722C86.1744 11.1842 86.569 12.1709 86.569 13.3335C86.569 14.5029 86.1757 15.4909 85.3904 16.2989Z" fill="white"/>
<path d="M80.2837 15.6295C80.8757 16.2295 81.5997 16.5282 82.457 16.5282C83.313 16.5282 84.0384 16.2295 84.6304 15.6295C85.2224 15.0295 85.5197 14.2642 85.5197 13.3335C85.5197 12.4029 85.2224 11.6362 84.6304 11.0375C84.0384 10.4375 83.313 10.1375 82.457 10.1375C81.5997 10.1375 80.8757 10.4375 80.2837 11.0375C79.693 11.6362 79.3957 12.4029 79.3957 13.3335C79.3957 14.2642 79.693 15.0295 80.2837 15.6295ZM85.3904 16.2989C84.6037 17.1082 83.6264 17.5122 82.457 17.5122C81.2877 17.5122 80.3104 17.1082 79.525 16.2989C78.7384 15.4909 78.3464 14.5029 78.3464 13.3335C78.3464 12.1642 78.7384 11.1749 79.525 10.3669C80.3104 9.55887 81.2877 9.15354 82.457 9.15354C83.6197 9.15354 84.5944 9.56021 85.385 10.3722C86.1744 11.1842 86.569 12.1709 86.569 13.3335C86.569 14.5029 86.1757 15.4909 85.3904 16.2989Z" stroke="white" stroke-width="0.266667" stroke-miterlimit="10"/>
<path d="M88.0116 17.3333V9.33325H89.2636L93.1503 15.5559H93.1956L93.1503 14.0146V9.33325H94.1796V17.3333H93.1063L89.0383 10.8079H88.9943L89.0383 12.3506V17.3333H88.0116Z" fill="white"/>
<path d="M88.0116 17.3333V9.33325H89.2636L93.1503 15.5559H93.1956L93.1503 14.0146V9.33325H94.1796V17.3333H93.1063L89.0383 10.8079H88.9943L89.0383 12.3506V17.3333H88.0116Z" stroke="white" stroke-width="0.266667" stroke-miterlimit="10"/>
<path d="M96.9725 8.70767H96.0778L96.6605 7.27701H97.7778L96.9725 8.70767ZM96.0112 9.33301H97.0392V17.333H96.0112V9.33301Z" fill="white"/>
<path d="M96.9725 8.70767H96.0778L96.6605 7.27701H97.7778L96.9725 8.70767ZM96.0112 9.33301H97.0392V17.333H96.0112V9.33301Z" stroke="white" stroke-width="0.266667" stroke-miterlimit="10"/>
<path d="M100.849 17.3333L98.0341 9.33325H99.1728L101.363 15.8253H101.407L103.687 9.33325H104.826L101.922 17.3333H100.849Z" fill="white"/>
<path d="M100.849 17.3333L98.0341 9.33325H99.1728L101.363 15.8253H101.407L103.687 9.33325H104.826L101.922 17.3333H100.849Z" stroke="white" stroke-width="0.266667" stroke-miterlimit="10"/>
<path d="M110.66 10.3164H107.017V12.8524H110.303V13.8137H107.017V16.3497H110.66V17.3337H105.989V9.33374H110.66V10.3164Z" fill="white"/>
<path d="M110.66 10.3164H107.017V12.8524H110.303V13.8137H107.017V16.3497H110.66V17.3337H105.989V9.33374H110.66V10.3164Z" stroke="white" stroke-width="0.266667" stroke-miterlimit="10"/>
<path d="M112.269 17.3333V9.33325H113.297V16.3506H116.76V17.3333H112.269Z" fill="white"/>
<path d="M112.269 17.3333V9.33325H113.297V16.3506H116.76V17.3333H112.269Z" stroke="white" stroke-width="0.266667" stroke-miterlimit="10"/>
<path d="M120.738 17.3333V9.33325H121.99L125.878 15.5559H125.922L125.878 14.0146V9.33325H126.906V17.3333H125.833L121.766 10.8079H121.721L121.766 12.3506V17.3333H120.738Z" fill="white"/>
<path d="M120.738 17.3333V9.33325H121.99L125.878 15.5559H125.922L125.878 14.0146V9.33325H126.906V17.3333H125.833L121.766 10.8079H121.721L121.766 12.3506V17.3333H120.738Z" stroke="white" stroke-width="0.266667" stroke-miterlimit="10"/>
<path d="M130.172 15.6295C130.764 16.2295 131.488 16.5282 132.345 16.5282C133.201 16.5282 133.926 16.2295 134.518 15.6295C135.11 15.0295 135.408 14.2642 135.408 13.3335C135.408 12.4029 135.11 11.6362 134.518 11.0375C133.926 10.4375 133.201 10.1375 132.345 10.1375C131.488 10.1375 130.764 10.4375 130.172 11.0375C129.581 11.6362 129.284 12.4029 129.284 13.3335C129.284 14.2642 129.581 15.0295 130.172 15.6295ZM135.278 16.2989C134.492 17.1082 133.514 17.5122 132.345 17.5122C131.176 17.5122 130.198 17.1082 129.413 16.2989C128.626 15.4909 128.234 14.5029 128.234 13.3335C128.234 12.1642 128.626 11.1749 129.413 10.3669C130.198 9.55887 131.176 9.15354 132.345 9.15354C133.508 9.15354 134.482 9.56021 135.273 10.3722C136.062 11.1842 136.457 12.1709 136.457 13.3335C136.457 14.5029 136.064 15.4909 135.278 16.2989Z" fill="white"/>
<path d="M130.172 15.6295C130.764 16.2295 131.488 16.5282 132.345 16.5282C133.201 16.5282 133.926 16.2295 134.518 15.6295C135.11 15.0295 135.408 14.2642 135.408 13.3335C135.408 12.4029 135.11 11.6362 134.518 11.0375C133.926 10.4375 133.201 10.1375 132.345 10.1375C131.488 10.1375 130.764 10.4375 130.172 11.0375C129.581 11.6362 129.284 12.4029 129.284 13.3335C129.284 14.2642 129.581 15.0295 130.172 15.6295ZM135.278 16.2989C134.492 17.1082 133.514 17.5122 132.345 17.5122C131.176 17.5122 130.198 17.1082 129.413 16.2989C128.626 15.4909 128.234 14.5029 128.234 13.3335C128.234 12.1642 128.626 11.1749 129.413 10.3669C130.198 9.55887 131.176 9.15354 132.345 9.15354C133.508 9.15354 134.482 9.56021 135.273 10.3722C136.062 11.1842 136.457 12.1709 136.457 13.3335C136.457 14.5029 136.064 15.4909 135.278 16.2989Z" stroke="white" stroke-width="0.266667" stroke-miterlimit="10"/>
<defs>
<linearGradient id="paint0_linear_13_4" x1="29.0662" y1="11.613" x2="6.68963" y2="33.9895" gradientUnits="userSpaceOnUse">
<stop stop-color="#00A0FF"/>
<stop offset="0.00657445" stop-color="#00A1FF"/>
<stop offset="0.2601" stop-color="#00BEFF"/>
<stop offset="0.5122" stop-color="#00D2FF"/>
<stop offset="0.7604" stop-color="#00DFFF"/>
<stop offset="1" stop-color="#00E3FF"/>
</linearGradient>
<linearGradient id="paint1_linear_13_4" x1="45.1124" y1="26.6687" x2="12.8498" y2="26.6687" gradientUnits="userSpaceOnUse">
<stop stop-color="#FFE000"/>
<stop offset="0.4087" stop-color="#FFBD00"/>
<stop offset="0.7754" stop-color="#FFA500"/>
<stop offset="1" stop-color="#FF9C00"/>
</linearGradient>
<linearGradient id="paint2_linear_13_4" x1="33.1024" y1="29.7282" x2="2.75807" y2="60.0726" gradientUnits="userSpaceOnUse">
<stop stop-color="#FF3A44"/>
<stop offset="1" stop-color="#C31162"/>
</linearGradient>
<linearGradient id="paint3_linear_13_4" x1="9.72962" y1="0.234876" x2="23.2796" y2="13.7849" gradientUnits="userSpaceOnUse">
<stop stop-color="#32A071"/>
<stop offset="0.0685" stop-color="#2DA771"/>
<stop offset="0.4762" stop-color="#15CF74"/>
<stop offset="0.8009" stop-color="#06E775"/>
<stop offset="1" stop-color="#00F076"/>
</linearGradient>
</defs>
</svg>
