<svg width="22" height="21" viewBox="0 0 22 21" fill="none" xmlns="http://www.w3.org/2000/svg">
<path d="M20.7805 0.94259C20.3979 0.955798 20.0467 1.15391 19.8442 1.47089L9.00388 17.6896L1.98111 11.7551C1.67949 11.4491 1.22706 11.3347 0.810643 11.4623C0.39648 11.5878 0.0881082 11.9312 0.0160798 12.3494C-0.0559486 12.7699 0.11737 13.1925 0.468508 13.4456L8.49968 20.2431C8.75178 20.4522 9.08491 20.5446 9.41129 20.4984C9.73992 20.45 10.0303 20.2673 10.2104 19.9965L21.7889 2.70358C22.0365 2.34918 22.0568 1.89133 21.8429 1.51711C21.6291 1.1451 21.2172 0.922779 20.7805 0.94259Z" fill="white"/>
</svg>
