<svg width="24" height="24" viewBox="0 0 24 24" fill="none" xmlns="http://www.w3.org/2000/svg">
<path d="M20.59 6.27002H3.41C2.35514 6.27002 1.5 7.12516 1.5 8.18002V19.63C1.5 20.6849 2.35514 21.54 3.41 21.54H20.59C21.6449 21.54 22.5 20.6849 22.5 19.63V8.18002C22.5 7.12516 21.6449 6.27002 20.59 6.27002Z" stroke="#004A74" stroke-width="1.91" stroke-miterlimit="10"/>
<path d="M16.77 6.26996H7.22998L9.13998 2.45996H14.86L16.77 6.26996Z" stroke="#004A74" stroke-width="1.91" stroke-miterlimit="10"/>
<path d="M6.27002 9.14001V21.55" stroke="#004A74" stroke-width="1.91" stroke-miterlimit="10"/>
<path d="M17.73 9.14001V21.55" stroke="#004A74" stroke-width="1.91" stroke-miterlimit="10"/>
<path d="M12.28 16.3301L9.58002 13.6301L12.28 10.9301L14.86 11.0401L14.98 13.6301L12.28 16.3301Z" stroke="#004A74" stroke-width="1.91" stroke-miterlimit="10"/>
<path d="M14.86 6.27002V11.05" stroke="#004A74" stroke-width="1.91" stroke-miterlimit="10"/>
<rect x="0.5" y="0.5" width="23" height="23" stroke="#DFDFDF"/>
</svg>
