<svg width="33" height="30" viewBox="0 0 33 30" fill="none" xmlns="http://www.w3.org/2000/svg">
<path d="M11.5 22.002C7.59997 21.2592 5.31426 19.7735 4.35712 17.7163" stroke="white" stroke-width="2" stroke-miterlimit="10"/>
<path d="M5.78571 12.0022C4.14286 9.25935 3.35714 4.31649 4.35714 3.43078C8.78571 7.0022 13.1 9.27363 17.2143 9.14506C17.2143 9.14506 17.2143 2.0022 22.9286 2.0022C24.4852 1.92808 26.0135 2.43751 27.2143 3.43078H31.5L30.0714 7.71649C30.3624 10.5969 29.9997 13.5059 29.0103 16.2267C28.0209 18.9475 26.4304 21.41 24.3571 23.4308C17.2143 30.5736 5.78571 29.1451 1.5 23.4308" stroke="white" stroke-width="2" stroke-miterlimit="10"/>
<path d="M7.21427 17.7166C6.06318 16.8684 5.09172 15.8004 4.35608 14.5744C3.62045 13.3483 3.13525 11.9885 2.92856 10.5737" stroke="white" stroke-width="2" stroke-miterlimit="10"/>
</svg>
